<svg width="848" height="520" xmlns="http://www.w3.org/2000/svg" version="1.1"><g transform="translate(0,10)"><g><path class="link" d="M426.5,43.16000000000005C634.75,43.16000000000005 634.75,8.160000000000085 843,8.160000000000085" style="stroke-width: 16.32; fill: none; stroke: rgb(165, 191, 105); stroke-opacity: 0.4;"><title>17</title></path><path class="link" d="M5,223.2C213.25,223.2 213.25,42.68000000000006 421.5,42.68000000000006" style="stroke-width: 15.36; fill: none; stroke: rgb(191, 147, 105); stroke-opacity: 0.4;"><title>16</title></path><path class="link" d="M426.5,103.48000000000006C634.75,103.48000000000006 634.75,35.44000000000008 843,35.44000000000008" style="stroke-width: 14.4; fill: none; stroke: rgb(179, 191, 105); stroke-opacity: 0.4;"><title>15</title></path><path class="link" d="M426.5,74.76000000000006C634.75,74.76000000000006 634.75,57.44000000000008 843,57.44000000000008" style="stroke-width: 9.6; fill: none; stroke: rgb(191, 188, 105); stroke-opacity: 0.4;"><title>10</title></path><path class="link" d="M5,265.35999999999996C213.25,265.35999999999996 213.25,125.96000000000006 421.5,125.96000000000006" style="stroke-width: 8.64; fill: none; stroke: rgb(191, 133, 105); stroke-opacity: 0.4;"><title>9</title></path><path class="link" d="M5,173.84C213.25,173.84 213.25,73.80000000000007 421.5,73.80000000000007" style="stroke-width: 7.68; fill: none; stroke: rgb(191, 119, 105); stroke-opacity: 0.4;"><title>8</title></path><path class="link" d="M5,182C213.25,182 213.25,143.64000000000007 421.5,143.64000000000007" style="stroke-width: 6.72; fill: none; stroke: rgb(191, 119, 105); stroke-opacity: 0.4;"><title>7</title></path><path class="link" d="M426.5,143.64000000000007C634.75,143.64000000000007 634.75,93.2800000000001 843,93.2800000000001" style="stroke-width: 6.72; fill: none; stroke: rgb(105, 191, 128); stroke-opacity: 0.4;"><title>7</title></path><path class="link" d="M426.5,125.00000000000006C634.75,125.00000000000006 634.75,76.56000000000009 843,76.56000000000009" style="stroke-width: 6.72; fill: none; stroke: rgb(124, 105, 191); stroke-opacity: 0.4;"><title>7</title></path><path class="link" d="M5,324.7199999999999C213.25,324.7199999999999 213.25,109.24000000000007 421.5,109.24000000000007" style="stroke-width: 4.8; fill: none; stroke: rgb(191, 105, 105); stroke-opacity: 0.4;"><title>5</title></path><path class="link" d="M5,289.75999999999993C213.25,289.75999999999993 213.25,55.64000000000005 421.5,55.64000000000005" style="stroke-width: 4.8; fill: none; stroke: rgb(191, 161, 105); stroke-opacity: 0.4;"><title>5</title></path><path class="link" d="M5,297.43999999999994C213.25,297.43999999999994 213.25,104.44000000000007 421.5,104.44000000000007" style="stroke-width: 4.8; fill: none; stroke: rgb(191, 161, 105); stroke-opacity: 0.4;"><title>5</title></path><path class="link" d="M426.5,159.40000000000006C634.75,159.40000000000006 634.75,109.0400000000001 843,109.0400000000001" style="stroke-width: 4.8; fill: none; stroke: rgb(105, 128, 191); stroke-opacity: 0.4;"><title>5</title></path><path class="link" d="M5,187.28C213.25,187.28 213.25,173.72000000000006 421.5,173.72000000000006" style="stroke-width: 3.84; fill: none; stroke: rgb(191, 119, 105); stroke-opacity: 0.4;"><title>4</title></path><path class="link" d="M5,234.71999999999997C213.25,234.71999999999997 213.25,99.16000000000005 421.5,99.16000000000005" style="stroke-width: 3.84; fill: none; stroke: rgb(191, 147, 105); stroke-opacity: 0.4;"><title>4</title></path><path class="link" d="M426.5,81.48000000000006C634.75,81.48000000000006 634.75,139.1200000000001 843,139.1200000000001" style="stroke-width: 3.84; fill: none; stroke: rgb(191, 188, 105); stroke-opacity: 0.4;"><title>4</title></path><path class="link" d="M426.5,54.20000000000006C634.75,54.20000000000006 634.75,166.8000000000001 843,166.8000000000001" style="stroke-width: 3.84; fill: none; stroke: rgb(165, 191, 105); stroke-opacity: 0.4;"><title>4</title></path><path class="link" d="M426.5,173.72000000000006C634.75,173.72000000000006 634.75,125.2800000000001 843,125.2800000000001" style="stroke-width: 3.84; fill: none; stroke: rgb(124, 191, 105); stroke-opacity: 0.4;"><title>4</title></path><path class="link" d="M426.5,201.40000000000006C634.75,201.40000000000006 634.75,152.9600000000001 843,152.9600000000001" style="stroke-width: 3.84; fill: none; stroke: rgb(105, 114, 191); stroke-opacity: 0.4;"><title>4</title></path><path class="link" d="M5,190.64C213.25,190.64 213.25,227.64000000000007 421.5,227.64000000000007" style="stroke-width: 2.88; fill: none; stroke: rgb(191, 119, 105); stroke-opacity: 0.4;"><title>3</title></path><path class="link" d="M5,271.11999999999995C213.25,271.11999999999995 213.25,160.36000000000004 421.5,160.36000000000004" style="stroke-width: 2.88; fill: none; stroke: rgb(191, 133, 105); stroke-opacity: 0.4;"><title>3</title></path><path class="link" d="M5,256.71999999999997C213.25,256.71999999999997 213.25,51.800000000000054 421.5,51.800000000000054" style="stroke-width: 2.88; fill: none; stroke: rgb(191, 133, 105); stroke-opacity: 0.4;"><title>3</title></path><path class="link" d="M5,293.59999999999997C213.25,293.59999999999997 213.25,82.92000000000006 421.5,82.92000000000006" style="stroke-width: 2.88; fill: none; stroke: rgb(191, 161, 105); stroke-opacity: 0.4;"><title>3</title></path><path class="link" d="M5,303.19999999999993C213.25,303.19999999999993 213.25,214.76000000000008 421.5,214.76000000000008" style="stroke-width: 2.88; fill: none; stroke: rgb(191, 161, 105); stroke-opacity: 0.4;"><title>3</title></path><path class="link" d="M426.5,84.84000000000006C634.75,84.84000000000006 634.75,218.8000000000001 843,218.8000000000001" style="stroke-width: 2.88; fill: none; stroke: rgb(191, 188, 105); stroke-opacity: 0.4;"><title>3</title></path><path class="link" d="M426.5,57.56000000000006C634.75,57.56000000000006 634.75,193.0400000000001 843,193.0400000000001" style="stroke-width: 2.88; fill: none; stroke: rgb(165, 191, 105); stroke-opacity: 0.4;"><title>3</title></path><path class="link" d="M426.5,227.64000000000007C634.75,227.64000000000007 634.75,205.9200000000001 843,205.9200000000001" style="stroke-width: 2.88; fill: none; stroke: rgb(105, 191, 184); stroke-opacity: 0.4;"><title>3</title></path><path class="link" d="M426.5,214.76000000000008C634.75,214.76000000000008 634.75,180.1600000000001 843,180.1600000000001" style="stroke-width: 2.88; fill: none; stroke: rgb(191, 105, 147); stroke-opacity: 0.4;"><title>3</title></path><path class="link" d="M5,328.0799999999999C213.25,328.0799999999999 213.25,299.6400000000001 421.5,299.6400000000001" style="stroke-width: 1.92; fill: none; stroke: rgb(191, 105, 105); stroke-opacity: 0.4;"><title>2</title></path><path class="link" d="M5,321.35999999999996C213.25,321.35999999999996 213.25,85.32000000000006 421.5,85.32000000000006" style="stroke-width: 1.92; fill: none; stroke: rgb(191, 105, 105); stroke-opacity: 0.4;"><title>2</title></path><path class="link" d="M5,319.43999999999994C213.25,319.43999999999994 213.25,59.00000000000006 421.5,59.00000000000006" style="stroke-width: 1.92; fill: none; stroke: rgb(191, 105, 105); stroke-opacity: 0.4;"><title>2</title></path><path class="link" d="M5,199.76000000000002C213.25,199.76000000000002 213.25,287.7200000000001 421.5,287.7200000000001" style="stroke-width: 1.92; fill: none; stroke: rgb(191, 119, 105); stroke-opacity: 0.4;"><title>2</title></path><path class="link" d="M5,194.96C213.25,194.96 213.25,251.96000000000006 421.5,251.96000000000006" style="stroke-width: 1.92; fill: none; stroke: rgb(191, 119, 105); stroke-opacity: 0.4;"><title>2</title></path><path class="link" d="M5,196.88000000000002C213.25,196.88000000000002 213.25,263.88000000000005 421.5,263.88000000000005" style="stroke-width: 1.92; fill: none; stroke: rgb(191, 119, 105); stroke-opacity: 0.4;"><title>2</title></path><path class="link" d="M5,193.04C213.25,193.04 213.25,240.04000000000008 421.5,240.04000000000008" style="stroke-width: 1.92; fill: none; stroke: rgb(191, 119, 105); stroke-opacity: 0.4;"><title>2</title></path><path class="link" d="M5,273.5199999999999C213.25,273.5199999999999 213.25,202.36000000000007 421.5,202.36000000000007" style="stroke-width: 1.92; fill: none; stroke: rgb(191, 133, 105); stroke-opacity: 0.4;"><title>2</title></path><path class="link" d="M5,259.11999999999995C213.25,259.11999999999995 213.25,80.52000000000005 421.5,80.52000000000005" style="stroke-width: 1.92; fill: none; stroke: rgb(191, 133, 105); stroke-opacity: 0.4;"><title>2</title></path><path class="link" d="M5,231.84C213.25,231.84 213.25,78.60000000000007 421.5,78.60000000000007" style="stroke-width: 1.92; fill: none; stroke: rgb(191, 147, 105); stroke-opacity: 0.4;"><title>2</title></path><path class="link" d="M5,237.6C213.25,237.6 213.25,157.96000000000006 421.5,157.96000000000006" style="stroke-width: 1.92; fill: none; stroke: rgb(191, 147, 105); stroke-opacity: 0.4;"><title>2</title></path><path class="link" d="M5,239.51999999999998C213.25,239.51999999999998 213.25,186.60000000000008 421.5,186.60000000000008" style="stroke-width: 1.92; fill: none; stroke: rgb(191, 147, 105); stroke-opacity: 0.4;"><title>2</title></path><path class="link" d="M5,241.44C213.25,241.44 213.25,200.44000000000008 421.5,200.44000000000008" style="stroke-width: 1.92; fill: none; stroke: rgb(191, 147, 105); stroke-opacity: 0.4;"><title>2</title></path><path class="link" d="M5,300.79999999999995C213.25,300.79999999999995 213.25,188.52000000000007 421.5,188.52000000000007" style="stroke-width: 1.92; fill: none; stroke: rgb(191, 161, 105); stroke-opacity: 0.4;"><title>2</title></path><path class="link" d="M426.5,299.6400000000001C634.75,299.6400000000001 634.75,278.88000000000005 843,278.88000000000005" style="stroke-width: 1.92; fill: none; stroke: rgb(191, 175, 105); stroke-opacity: 0.4;"><title>2</title></path><path class="link" d="M426.5,287.7200000000001C634.75,287.7200000000001 634.75,231.2000000000001 843,231.2000000000001" style="stroke-width: 1.92; fill: none; stroke: rgb(137, 191, 105); stroke-opacity: 0.4;"><title>2</title></path><path class="link" d="M426.5,251.96000000000006C634.75,251.96000000000006 634.75,17.280000000000086 843,17.280000000000086" style="stroke-width: 1.92; fill: none; stroke: rgb(110, 191, 105); stroke-opacity: 0.4;"><title>2</title></path><path class="link" d="M426.5,275.80000000000007C634.75,275.80000000000007 634.75,255.04000000000008 843,255.04000000000008" style="stroke-width: 1.92; fill: none; stroke: rgb(105, 191, 156); stroke-opacity: 0.4;"><title>2</title></path><path class="link" d="M426.5,240.04000000000008C634.75,240.04000000000008 634.75,243.1200000000001 843,243.1200000000001" style="stroke-width: 1.92; fill: none; stroke: rgb(105, 156, 191); stroke-opacity: 0.4;"><title>2</title></path><path class="link" d="M426.5,129.32000000000008C634.75,129.32000000000008 634.75,266.96000000000004 843,266.96000000000004" style="stroke-width: 1.92; fill: none; stroke: rgb(124, 105, 191); stroke-opacity: 0.4;"><title>2</title></path><path class="link" d="M426.5,186.60000000000008C634.75,186.60000000000008 634.75,112.40000000000009 843,112.40000000000009" style="stroke-width: 1.92; fill: none; stroke: rgb(179, 105, 191); stroke-opacity: 0.4;"><title>2</title></path><path class="link" d="M426.5,188.52000000000007C634.75,188.52000000000007 634.75,290.80000000000007 843,290.80000000000007" style="stroke-width: 1.92; fill: none; stroke: rgb(179, 105, 191); stroke-opacity: 0.4;"><title>2</title></path><path class="link" d="M5,329.52C213.25,329.52 213.25,464.51999999999987 421.5,464.51999999999987" style="stroke-width: 1; fill: none; stroke: rgb(191, 105, 105); stroke-opacity: 0.4;"><title>1</title></path><path class="link" d="M5,203.12C213.25,203.12 213.25,376.84000000000003 421.5,376.84000000000003" style="stroke-width: 1; fill: none; stroke: rgb(191, 119, 105); stroke-opacity: 0.4;"><title>1</title></path><path class="link" d="M5,198.32C213.25,198.32 213.25,275.3200000000001 421.5,275.3200000000001" style="stroke-width: 1; fill: none; stroke: rgb(191, 119, 105); stroke-opacity: 0.4;"><title>1</title></path><path class="link" d="M5,201.2C213.25,201.2 213.25,311.08000000000015 421.5,311.08000000000015" style="stroke-width: 1; fill: none; stroke: rgb(191, 119, 105); stroke-opacity: 0.4;"><title>1</title></path><path class="link" d="M5,178.16C213.25,178.16 213.25,96.76000000000006 421.5,96.76000000000006" style="stroke-width: 1; fill: none; stroke: rgb(191, 119, 105); stroke-opacity: 0.4;"><title>1</title></path><path class="link" d="M5,202.16C213.25,202.16 213.25,365.88000000000005 421.5,365.88000000000005" style="stroke-width: 1; fill: none; stroke: rgb(191, 119, 105); stroke-opacity: 0.4;"><title>1</title></path><path class="link" d="M5,205.04C213.25,205.04 213.25,453.5599999999999 421.5,453.5599999999999" style="stroke-width: 1; fill: none; stroke: rgb(191, 119, 105); stroke-opacity: 0.4;"><title>1</title></path><path class="link" d="M5,204.08C213.25,204.08 213.25,387.8 421.5,387.8" style="stroke-width: 1; fill: none; stroke: rgb(191, 119, 105); stroke-opacity: 0.4;"><title>1</title></path><path class="link" d="M5,274.96C213.25,274.96 213.25,276.2800000000001 421.5,276.2800000000001" style="stroke-width: 1; fill: none; stroke: rgb(191, 133, 105); stroke-opacity: 0.4;"><title>1</title></path><path class="link" d="M5,275.92C213.25,275.92 213.25,322.04000000000013 421.5,322.04000000000013" style="stroke-width: 1; fill: none; stroke: rgb(191, 133, 105); stroke-opacity: 0.4;"><title>1</title></path><path class="link" d="M5,260.56C213.25,260.56 213.25,101.56000000000006 421.5,101.56000000000006" style="stroke-width: 1; fill: none; stroke: rgb(191, 133, 105); stroke-opacity: 0.4;"><title>1</title></path><path class="link" d="M5,276.88C213.25,276.88 213.25,420.67999999999995 421.5,420.67999999999995" style="stroke-width: 1; fill: none; stroke: rgb(191, 133, 105); stroke-opacity: 0.4;"><title>1</title></path><path class="link" d="M5,242.87999999999997C213.25,242.87999999999997 213.25,333.0000000000001 421.5,333.0000000000001" style="stroke-width: 1; fill: none; stroke: rgb(191, 147, 105); stroke-opacity: 0.4;"><title>1</title></path><path class="link" d="M5,243.83999999999997C213.25,243.83999999999997 213.25,343.9600000000001 421.5,343.9600000000001" style="stroke-width: 1; fill: none; stroke: rgb(191, 147, 105); stroke-opacity: 0.4;"><title>1</title></path><path class="link" d="M5,244.79999999999998C213.25,244.79999999999998 213.25,431.63999999999993 421.5,431.63999999999993" style="stroke-width: 1; fill: none; stroke: rgb(191, 147, 105); stroke-opacity: 0.4;"><title>1</title></path><path class="link" d="M5,305.12C213.25,305.12 213.25,354.9200000000001 421.5,354.9200000000001" style="stroke-width: 1; fill: none; stroke: rgb(191, 161, 105); stroke-opacity: 0.4;"><title>1</title></path><path class="link" d="M5,308C213.25,308 213.25,442.5999999999999 421.5,442.5999999999999" style="stroke-width: 1; fill: none; stroke: rgb(191, 161, 105); stroke-opacity: 0.4;"><title>1</title></path><path class="link" d="M5,306.08C213.25,306.08 213.25,398.76 421.5,398.76" style="stroke-width: 1; fill: none; stroke: rgb(191, 161, 105); stroke-opacity: 0.4;"><title>1</title></path><path class="link" d="M5,307.03999999999996C213.25,307.03999999999996 213.25,409.71999999999997 421.5,409.71999999999997" style="stroke-width: 1; fill: none; stroke: rgb(191, 161, 105); stroke-opacity: 0.4;"><title>1</title></path><path class="link" d="M426.5,111.16000000000007C634.75,111.16000000000007 634.75,302.2400000000001 843,302.2400000000001" style="stroke-width: 1; fill: none; stroke: rgb(179, 191, 105); stroke-opacity: 0.4;"><title>1</title></path><path class="link" d="M426.5,51.800000000000054C634.75,51.800000000000054 634.75,72.7200000000001 843,72.7200000000001" style="stroke-width: 1; fill: none; stroke: rgb(165, 191, 105); stroke-opacity: 0.4;"><title>1</title></path><path class="link" d="M426.5,59.480000000000054C634.75,59.480000000000054 634.75,400.87999999999994 843,400.87999999999994" style="stroke-width: 1; fill: none; stroke: rgb(165, 191, 105); stroke-opacity: 0.4;"><title>1</title></path><path class="link" d="M426.5,464.51999999999987C634.75,464.51999999999987 634.75,499.51999999999975 843,499.51999999999975" style="stroke-width: 1; fill: none; stroke: rgb(151, 191, 105); stroke-opacity: 0.4;"><title>1</title></path><path class="link" d="M426.5,264.36000000000007C634.75,264.36000000000007 634.75,368 843,368" style="stroke-width: 1; fill: none; stroke: rgb(105, 191, 114); stroke-opacity: 0.4;"><title>1</title></path><path class="link" d="M426.5,263.4000000000001C634.75,263.4000000000001 634.75,357.04 843,357.04" style="stroke-width: 1; fill: none; stroke: rgb(105, 191, 114); stroke-opacity: 0.4;"><title>1</title></path><path class="link" d="M426.5,376.84000000000003C634.75,376.84000000000003 634.75,422.7999999999999 843,422.7999999999999" style="stroke-width: 1; fill: none; stroke: rgb(105, 191, 142); stroke-opacity: 0.4;"><title>1</title></path><path class="link" d="M426.5,311.08000000000015C634.75,311.08000000000015 634.75,313.2000000000001 843,313.2000000000001" style="stroke-width: 1; fill: none; stroke: rgb(105, 191, 170); stroke-opacity: 0.4;"><title>1</title></path><path class="link" d="M426.5,365.88000000000005C634.75,365.88000000000005 634.75,389.91999999999996 843,389.91999999999996" style="stroke-width: 1; fill: none; stroke: rgb(105, 184, 191); stroke-opacity: 0.4;"><title>1</title></path><path class="link" d="M426.5,453.5599999999999C634.75,453.5599999999999 634.75,488.5599999999998 843,488.5599999999998" style="stroke-width: 1; fill: none; stroke: rgb(105, 170, 191); stroke-opacity: 0.4;"><title>1</title></path><path class="link" d="M426.5,387.8C634.75,387.8 634.75,411.8399999999999 843,411.8399999999999" style="stroke-width: 1; fill: none; stroke: rgb(105, 142, 191); stroke-opacity: 0.4;"><title>1</title></path><path class="link" d="M426.5,322.04000000000013C634.75,322.04000000000013 634.75,324.1600000000001 843,324.1600000000001" style="stroke-width: 1; fill: none; stroke: rgb(110, 105, 191); stroke-opacity: 0.4;"><title>1</title></path><path class="link" d="M426.5,420.67999999999995C634.75,420.67999999999995 634.75,433.7599999999999 843,433.7599999999999" style="stroke-width: 1; fill: none; stroke: rgb(137, 105, 191); stroke-opacity: 0.4;"><title>1</title></path><path class="link" d="M426.5,333.0000000000001C634.75,333.0000000000001 634.75,335.12000000000006 843,335.12000000000006" style="stroke-width: 1; fill: none; stroke: rgb(151, 105, 191); stroke-opacity: 0.4;"><title>1</title></path><path class="link" d="M426.5,343.9600000000001C634.75,343.9600000000001 634.75,346.08000000000004 843,346.08000000000004" style="stroke-width: 1; fill: none; stroke: rgb(165, 105, 191); stroke-opacity: 0.4;"><title>1</title></path><path class="link" d="M426.5,431.63999999999993C634.75,431.63999999999993 634.75,466.6399999999998 843,466.6399999999998" style="stroke-width: 1; fill: none; stroke: rgb(191, 105, 188); stroke-opacity: 0.4;"><title>1</title></path><path class="link" d="M426.5,354.9200000000001C634.75,354.9200000000001 634.75,378.96 843,378.96" style="stroke-width: 1; fill: none; stroke: rgb(191, 105, 175); stroke-opacity: 0.4;"><title>1</title></path><path class="link" d="M426.5,442.5999999999999C634.75,442.5999999999999 634.75,477.5999999999998 843,477.5999999999998" style="stroke-width: 1; fill: none; stroke: rgb(191, 105, 161); stroke-opacity: 0.4;"><title>1</title></path><path class="link" d="M426.5,398.76C634.75,398.76 634.75,444.71999999999986 843,444.71999999999986" style="stroke-width: 1; fill: none; stroke: rgb(191, 105, 133); stroke-opacity: 0.4;"><title>1</title></path><path class="link" d="M426.5,409.71999999999997C634.75,409.71999999999997 634.75,455.67999999999984 843,455.67999999999984" style="stroke-width: 1; fill: none; stroke: rgb(191, 105, 119); stroke-opacity: 0.4;"><title>1</title></path></g><g><g class="node" transform="translate(0,318.47999999999996)"><rect height="11.52" width="5" style=""><title>BeeTalk
12</title></rect><text x="11" y="5.76" dy=".35em" text-anchor="start" style="font-size: 11px; font-family: Arial,Helvetica; pointer-events: none;">BeeTalk</text></g><g class="node" transform="translate(0,170)"><rect height="35.519999999999996" width="5" style=""><title>Grindr
37</title></rect><text x="11" y="17.759999999999998" dy=".35em" text-anchor="start" style="font-size: 11px; font-family: Arial,Helvetica; pointer-events: none;">Grindr</text></g><g class="node" transform="translate(0,255.27999999999997)"><rect height="22.08" width="5" style=""><title>OkCupid1
23</title></rect><text x="11" y="11.04" dy=".35em" text-anchor="start" style="font-size: 11px; font-family: Arial,Helvetica; pointer-events: none;">OkCupid1</text></g><g class="node" transform="translate(0,215.51999999999998)"><rect height="29.759999999999998" width="5" style=""><title>OkCupid2
31</title></rect><text x="11" y="14.879999999999999" dy=".35em" text-anchor="start" style="font-size: 11px; font-family: Arial,Helvetica; pointer-events: none;">OkCupid2</text></g><g class="node" transform="translate(0,287.35999999999996)"><rect height="21.119999999999997" width="5" style=""><title>Tinder
22</title></rect><text x="11" y="10.559999999999999" dy=".35em" text-anchor="start" style="font-size: 11px; font-family: Arial,Helvetica; pointer-events: none;">Tinder</text></g><g class="node" transform="translate(843,72.2400000000001)"><rect height="7.68" width="5" style="fill: rgb(102, 102, 102);"><title>
8</title></rect><text x="-6" y="3.84" dy=".35em" text-anchor="end" style="font-size: 11px; font-family: Arial,Helvetica; pointer-events: none;"></text></g><g class="node" transform="translate(843,301.7600000000001)"><rect height="0.96" width="5" style="fill: rgb(102, 102, 102);"><title>AccountKit
1</title></rect><text x="-6" y="0.48" dy=".35em" text-anchor="end" style="font-size: 11px; font-family: Arial,Helvetica; pointer-events: none;">AccountKit</text></g><g class="node" transform="translate(843,230.2400000000001)"><rect height="1.92" width="5" style="fill: rgb(102, 102, 102);"><title>AdColony
2</title></rect><text x="-6" y="0.96" dy=".35em" text-anchor="end" style="font-size: 11px; font-family: Arial,Helvetica; pointer-events: none;">AdColony</text></g><g class="node" transform="translate(843,242.16000000000008)"><rect height="1.92" width="5" style="fill: rgb(102, 102, 102);"><title>Adform
2</title></rect><text x="-6" y="0.96" dy=".35em" text-anchor="end" style="font-size: 11px; font-family: Arial,Helvetica; pointer-events: none;">Adform</text></g><g class="node" transform="translate(843,312.7200000000001)"><rect height="0.96" width="5" style="fill: rgb(102, 102, 102);"><title>Amazon Web Services
1</title></rect><text x="-6" y="0.48" dy=".35em" text-anchor="end" style="font-size: 11px; font-family: Arial,Helvetica; pointer-events: none;">Amazon Web Services</text></g><g class="node" transform="translate(843,323.68000000000006)"><rect height="0.96" width="5" style="fill: rgb(102, 102, 102);"><title>Appboy
1</title></rect><text x="-6" y="0.48" dy=".35em" text-anchor="end" style="font-size: 11px; font-family: Arial,Helvetica; pointer-events: none;">Appboy</text></g><g class="node" transform="translate(843,334.64000000000004)"><rect height="0.96" width="5" style="fill: rgb(102, 102, 102);"><title>AppBoy
1</title></rect><text x="-6" y="0.48" dy=".35em" text-anchor="end" style="font-size: 11px; font-family: Arial,Helvetica; pointer-events: none;">AppBoy</text></g><g class="node" transform="translate(843,345.6)"><rect height="0.96" width="5" style="fill: rgb(102, 102, 102);"><title>Appsflyer
1</title></rect><text x="-6" y="0.48" dy=".35em" text-anchor="end" style="font-size: 11px; font-family: Arial,Helvetica; pointer-events: none;">Appsflyer</text></g><g class="node" transform="translate(843,178.7200000000001)"><rect height="2.88" width="5" style="fill: rgb(102, 102, 102);"><title>AppsFlyer
3</title></rect><text x="-6" y="1.44" dy=".35em" text-anchor="end" style="font-size: 11px; font-family: Arial,Helvetica; pointer-events: none;">AppsFlyer</text></g><g class="node" transform="translate(843,356.56)"><rect height="0.96" width="5" style="fill: rgb(102, 102, 102);"><title>Apptimize, Inc.
1</title></rect><text x="-6" y="0.48" dy=".35em" text-anchor="end" style="font-size: 11px; font-family: Arial,Helvetica; pointer-events: none;">Apptimize, Inc.</text></g><g class="node" transform="translate(843,367.52)"><rect height="0.96" width="5" style="fill: rgb(102, 102, 102);"><title>Apptimize,Inc.
1</title></rect><text x="-6" y="0.48" dy=".35em" text-anchor="end" style="font-size: 11px; font-family: Arial,Helvetica; pointer-events: none;">Apptimize,Inc.</text></g><g class="node" transform="translate(843,378.47999999999996)"><rect height="0.96" width="5" style="fill: rgb(102, 102, 102);"><title>Branch
1</title></rect><text x="-6" y="0.48" dy=".35em" text-anchor="end" style="font-size: 11px; font-family: Arial,Helvetica; pointer-events: none;">Branch</text></g><g class="node" transform="translate(843,52.640000000000086)"><rect height="9.6" width="5" style="fill: rgb(102, 102, 102);"><title>Crashlytics
10</title></rect><text x="-6" y="4.8" dy=".35em" text-anchor="end" style="font-size: 11px; font-family: Arial,Helvetica; pointer-events: none;">Crashlytics</text></g><g class="node" transform="translate(843,389.43999999999994)"><rect height="0.96" width="5" style="fill: rgb(102, 102, 102);"><title>Criteo
1</title></rect><text x="-6" y="0.48" dy=".35em" text-anchor="end" style="font-size: 11px; font-family: Arial,Helvetica; pointer-events: none;">Criteo</text></g><g class="node" transform="translate(843,400.3999999999999)"><rect height="0.96" width="5" style="fill: rgb(102, 102, 102);"><title>Doubleclick
1</title></rect><text x="-6" y="0.48" dy=".35em" text-anchor="end" style="font-size: 11px; font-family: Arial,Helvetica; pointer-events: none;">Doubleclick</text></g><g class="node" transform="translate(843,191.6000000000001)"><rect height="2.88" width="5" style="fill: rgb(102, 102, 102);"><title>DoubleClick
3</title></rect><text x="-6" y="1.44" dy=".35em" text-anchor="end" style="font-size: 11px; font-family: Arial,Helvetica; pointer-events: none;">DoubleClick</text></g><g class="node" transform="translate(843,28.240000000000084)"><rect height="14.399999999999999" width="5" style="fill: rgb(102, 102, 102);"><title>Facebook
15</title></rect><text x="-6" y="7.199999999999999" dy=".35em" text-anchor="end" style="font-size: 11px; font-family: Arial,Helvetica; pointer-events: none;">Facebook</text></g><g class="node" transform="translate(843,411.3599999999999)"><rect height="0.96" width="5" style="fill: rgb(102, 102, 102);"><title>Forensiq
1</title></rect><text x="-6" y="0.48" dy=".35em" text-anchor="end" style="font-size: 11px; font-family: Arial,Helvetica; pointer-events: none;">Forensiq</text></g><g class="node" transform="translate(843,8.526512829121202e-14)"><rect height="18.24" width="5" style="fill: rgb(102, 102, 102);"><title>Google
19</title></rect><text x="-6" y="9.12" dy=".35em" text-anchor="end" style="font-size: 11px; font-family: Arial,Helvetica; pointer-events: none;">Google</text></g><g class="node" transform="translate(843,89.9200000000001)"><rect height="6.72" width="5" style="fill: rgb(102, 102, 102);"><title>Grindr
7</title></rect><text x="-6" y="3.36" dy=".35em" text-anchor="end" style="font-size: 11px; font-family: Arial,Helvetica; pointer-events: none;">Grindr</text></g><g class="node" transform="translate(843,422.3199999999999)"><rect height="0.96" width="5" style="fill: rgb(102, 102, 102);"><title>gskinner.com, inc
1</title></rect><text x="-6" y="0.48" dy=".35em" text-anchor="end" style="font-size: 11px; font-family: Arial,Helvetica; pointer-events: none;">gskinner.com, inc</text></g><g class="node" transform="translate(843,433.27999999999986)"><rect height="0.96" width="5" style="fill: rgb(102, 102, 102);"><title>Humor Rainbow, Inc.
1</title></rect><text x="-6" y="0.48" dy=".35em" text-anchor="end" style="font-size: 11px; font-family: Arial,Helvetica; pointer-events: none;">Humor Rainbow, Inc.</text></g><g class="node" transform="translate(843,444.23999999999984)"><rect height="0.96" width="5" style="fill: rgb(102, 102, 102);"><title>Instagram
1</title></rect><text x="-6" y="0.48" dy=".35em" text-anchor="end" style="font-size: 11px; font-family: Arial,Helvetica; pointer-events: none;">Instagram</text></g><g class="node" transform="translate(843,254.08000000000007)"><rect height="1.92" width="5" style="fill: rgb(102, 102, 102);"><title>Kochava
2</title></rect><text x="-6" y="0.96" dy=".35em" text-anchor="end" style="font-size: 11px; font-family: Arial,Helvetica; pointer-events: none;">Kochava</text></g><g class="node" transform="translate(843,455.1999999999998)"><rect height="0.96" width="5" style="fill: rgb(102, 102, 102);"><title>Leanplum
1</title></rect><text x="-6" y="0.48" dy=".35em" text-anchor="end" style="font-size: 11px; font-family: Arial,Helvetica; pointer-events: none;">Leanplum</text></g><g class="node" transform="translate(843,123.3600000000001)"><rect height="3.84" width="5" style="fill: rgb(102, 102, 102);"><title>Localytics
4</title></rect><text x="-6" y="1.92" dy=".35em" text-anchor="end" style="font-size: 11px; font-family: Arial,Helvetica; pointer-events: none;">Localytics</text></g><g class="node" transform="translate(843,466.1599999999998)"><rect height="0.96" width="5" style="fill: rgb(102, 102, 102);"><title>Moloco
1</title></rect><text x="-6" y="0.48" dy=".35em" text-anchor="end" style="font-size: 11px; font-family: Arial,Helvetica; pointer-events: none;">Moloco</text></g><g class="node" transform="translate(843,137.2000000000001)"><rect height="3.84" width="5" style="fill: rgb(102, 102, 102);"><title>MoPub
4</title></rect><text x="-6" y="1.92" dy=".35em" text-anchor="end" style="font-size: 11px; font-family: Arial,Helvetica; pointer-events: none;">MoPub</text></g><g class="node" transform="translate(843,151.0400000000001)"><rect height="3.84" width="5" style="fill: rgb(102, 102, 102);"><title>mParticle
4</title></rect><text x="-6" y="1.92" dy=".35em" text-anchor="end" style="font-size: 11px; font-family: Arial,Helvetica; pointer-events: none;">mParticle</text></g><g class="node" transform="translate(843,106.6400000000001)"><rect height="6.72" width="5" style="fill: rgb(102, 102, 102);"><title>OkCupid
7</title></rect><text x="-6" y="3.36" dy=".35em" text-anchor="end" style="font-size: 11px; font-family: Arial,Helvetica; pointer-events: none;">OkCupid</text></g><g class="node" transform="translate(843,266.00000000000006)"><rect height="1.92" width="5" style="fill: rgb(102, 102, 102);"><title>OKCupid
2</title></rect><text x="-6" y="0.96" dy=".35em" text-anchor="end" style="font-size: 11px; font-family: Arial,Helvetica; pointer-events: none;">OKCupid</text></g><g class="node" transform="translate(843,277.9200000000001)"><rect height="1.92" width="5" style="fill: rgb(102, 102, 102);"><title>Sea Limited
2</title></rect><text x="-6" y="0.96" dy=".35em" text-anchor="end" style="font-size: 11px; font-family: Arial,Helvetica; pointer-events: none;">Sea Limited</text></g><g class="node" transform="translate(843,204.4800000000001)"><rect height="2.88" width="5" style="fill: rgb(102, 102, 102);"><title>Smaato
3</title></rect><text x="-6" y="1.44" dy=".35em" text-anchor="end" style="font-size: 11px; font-family: Arial,Helvetica; pointer-events: none;">Smaato</text></g><g class="node" transform="translate(843,289.8400000000001)"><rect height="1.92" width="5" style="fill: rgb(102, 102, 102);"><title>Tinder
2</title></rect><text x="-6" y="0.96" dy=".35em" text-anchor="end" style="font-size: 11px; font-family: Arial,Helvetica; pointer-events: none;">Tinder</text></g><g class="node" transform="translate(843,477.1199999999998)"><rect height="0.96" width="5" style="fill: rgb(102, 102, 102);"><title>tindersparks
1</title></rect><text x="-6" y="0.48" dy=".35em" text-anchor="end" style="font-size: 11px; font-family: Arial,Helvetica; pointer-events: none;">tindersparks</text></g><g class="node" transform="translate(843,488.07999999999976)"><rect height="0.96" width="5" style="fill: rgb(102, 102, 102);"><title>Treasure Data
1</title></rect><text x="-6" y="0.48" dy=".35em" text-anchor="end" style="font-size: 11px; font-family: Arial,Helvetica; pointer-events: none;">Treasure Data</text></g><g class="node" transform="translate(843,217.3600000000001)"><rect height="2.88" width="5" style="fill: rgb(102, 102, 102);"><title>Twitter
3</title></rect><text x="-6" y="1.44" dy=".35em" text-anchor="end" style="font-size: 11px; font-family: Arial,Helvetica; pointer-events: none;">Twitter</text></g><g class="node" transform="translate(843,499.03999999999974)"><rect height="0.96" width="5" style="fill: rgb(102, 102, 102);"><title>Yahoo
1</title></rect><text x="-6" y="0.48" dy=".35em" text-anchor="end" style="font-size: 11px; font-family: Arial,Helvetica; pointer-events: none;">Yahoo</text></g><g class="node" transform="translate(843,164.8800000000001)"><rect height="3.84" width="5" style="fill: rgb(102, 102, 102);"><title>YouTube
4</title></rect><text x="-6" y="1.92" dy=".35em" text-anchor="end" style="font-size: 11px; font-family: Arial,Helvetica; pointer-events: none;">YouTube</text></g><g class="node" transform="translate(421.5,121.64000000000006)"><rect height="8.64" width="5" style=""><title>
9</title></rect><text x="11" y="4.32" dy=".35em" text-anchor="start" style="font-size: 11px; font-family: Arial,Helvetica; pointer-events: none;"></text></g><g class="node" transform="translate(421.5,239.08000000000007)"><rect height="1.92" width="5" style=""><title>Adform
2</title></rect><text x="11" y="0.96" dy=".35em" text-anchor="start" style="font-size: 11px; font-family: Arial,Helvetica; pointer-events: none;">Adform</text></g><g class="node" transform="translate(421.5,251.00000000000006)"><rect height="1.92" width="5" style=""><title>Alphabet
2</title></rect><text x="11" y="0.96" dy=".35em" text-anchor="start" style="font-size: 11px; font-family: Arial,Helvetica; pointer-events: none;">Alphabet</text></g><g class="node" transform="translate(421.5,310.60000000000014)"><rect height="0.96" width="5" style=""><title>Amazon
1</title></rect><text x="11" y="0.48" dy=".35em" text-anchor="start" style="font-size: 11px; font-family: Arial,Helvetica; pointer-events: none;">Amazon</text></g><g class="node" transform="translate(421.5,321.5600000000001)"><rect height="0.96" width="5" style=""><title>Appboy
1</title></rect><text x="11" y="0.48" dy=".35em" text-anchor="start" style="font-size: 11px; font-family: Arial,Helvetica; pointer-events: none;">Appboy</text></g><g class="node" transform="translate(421.5,332.5200000000001)"><rect height="0.96" width="5" style=""><title>AppBoy
1</title></rect><text x="11" y="0.48" dy=".35em" text-anchor="start" style="font-size: 11px; font-family: Arial,Helvetica; pointer-events: none;">AppBoy</text></g><g class="node" transform="translate(421.5,343.4800000000001)"><rect height="0.96" width="5" style=""><title>Appsflyer
1</title></rect><text x="11" y="0.48" dy=".35em" text-anchor="start" style="font-size: 11px; font-family: Arial,Helvetica; pointer-events: none;">Appsflyer</text></g><g class="node" transform="translate(421.5,213.32000000000008)"><rect height="2.88" width="5" style=""><title>AppsFlyer
3</title></rect><text x="11" y="1.44" dy=".35em" text-anchor="start" style="font-size: 11px; font-family: Arial,Helvetica; pointer-events: none;">AppsFlyer</text></g><g class="node" transform="translate(421.5,262.9200000000001)"><rect height="1.92" width="5" style=""><title>Apptimize, Inc.
2</title></rect><text x="11" y="0.96" dy=".35em" text-anchor="start" style="font-size: 11px; font-family: Arial,Helvetica; pointer-events: none;">Apptimize, Inc.</text></g><g class="node" transform="translate(421.5,140.28000000000006)"><rect height="6.72" width="5" style=""><title>Beijing Kunlun Technology
7</title></rect><text x="11" y="3.36" dy=".35em" text-anchor="start" style="font-size: 11px; font-family: Arial,Helvetica; pointer-events: none;">Beijing Kunlun Technology</text></g><g class="node" transform="translate(421.5,354.44000000000005)"><rect height="0.96" width="5" style=""><title>Branch
1</title></rect><text x="11" y="0.48" dy=".35em" text-anchor="start" style="font-size: 11px; font-family: Arial,Helvetica; pointer-events: none;">Branch</text></g><g class="node" transform="translate(421.5,365.40000000000003)"><rect height="0.96" width="5" style=""><title>Criteo
1</title></rect><text x="11" y="0.48" dy=".35em" text-anchor="start" style="font-size: 11px; font-family: Arial,Helvetica; pointer-events: none;">Criteo</text></g><g class="node" transform="translate(421.5,96.28000000000006)"><rect height="15.36" width="5" style=""><title>Facebook
16</title></rect><text x="11" y="7.68" dy=".35em" text-anchor="start" style="font-size: 11px; font-family: Arial,Helvetica; pointer-events: none;">Facebook</text></g><g class="node" transform="translate(421.5,35.00000000000006)"><rect height="24.96" width="5" style=""><title>Google
26</title></rect><text x="11" y="12.48" dy=".35em" text-anchor="start" style="font-size: 11px; font-family: Arial,Helvetica; pointer-events: none;">Google</text></g><g class="node" transform="translate(421.5,376.36)"><rect height="0.96" width="5" style=""><title>gskinner.com, inc
1</title></rect><text x="11" y="0.48" dy=".35em" text-anchor="start" style="font-size: 11px; font-family: Arial,Helvetica; pointer-events: none;">gskinner.com, inc</text></g><g class="node" transform="translate(421.5,387.32)"><rect height="0.96" width="5" style=""><title>Impact Radis
1</title></rect><text x="11" y="0.48" dy=".35em" text-anchor="start" style="font-size: 11px; font-family: Arial,Helvetica; pointer-events: none;">Impact Radis</text></g><g class="node" transform="translate(421.5,398.28)"><rect height="0.96" width="5" style=""><title>Instagram
1</title></rect><text x="11" y="0.48" dy=".35em" text-anchor="start" style="font-size: 11px; font-family: Arial,Helvetica; pointer-events: none;">Instagram</text></g><g class="node" transform="translate(421.5,274.8400000000001)"><rect height="1.92" width="5" style=""><title>Kochava
2</title></rect><text x="11" y="0.96" dy=".35em" text-anchor="start" style="font-size: 11px; font-family: Arial,Helvetica; pointer-events: none;">Kochava</text></g><g class="node" transform="translate(421.5,409.23999999999995)"><rect height="0.96" width="5" style=""><title>Leanplum
1</title></rect><text x="11" y="0.48" dy=".35em" text-anchor="start" style="font-size: 11px; font-family: Arial,Helvetica; pointer-events: none;">Leanplum</text></g><g class="node" transform="translate(421.5,171.80000000000007)"><rect height="3.84" width="5" style=""><title>Localytics
4</title></rect><text x="11" y="1.92" dy=".35em" text-anchor="start" style="font-size: 11px; font-family: Arial,Helvetica; pointer-events: none;">Localytics</text></g><g class="node" transform="translate(421.5,185.64000000000007)"><rect height="3.84" width="5" style=""><title>Match Group
4</title></rect><text x="11" y="1.92" dy=".35em" text-anchor="start" style="font-size: 11px; font-family: Arial,Helvetica; pointer-events: none;">Match Group</text></g><g class="node" transform="translate(421.5,420.19999999999993)"><rect height="0.96" width="5" style=""><title>Match.com (owned by InterActiveCorp)
1</title></rect><text x="11" y="0.48" dy=".35em" text-anchor="start" style="font-size: 11px; font-family: Arial,Helvetica; pointer-events: none;">Match.com (owned by InterActiveCorp)</text></g><g class="node" transform="translate(421.5,431.1599999999999)"><rect height="0.96" width="5" style=""><title>Moloco
1</title></rect><text x="11" y="0.48" dy=".35em" text-anchor="start" style="font-size: 11px; font-family: Arial,Helvetica; pointer-events: none;">Moloco</text></g><g class="node" transform="translate(421.5,199.48000000000008)"><rect height="3.84" width="5" style=""><title>mParticle
4</title></rect><text x="11" y="1.92" dy=".35em" text-anchor="start" style="font-size: 11px; font-family: Arial,Helvetica; pointer-events: none;">mParticle</text></g><g class="node" transform="translate(421.5,157.00000000000006)"><rect height="4.8" width="5" style=""><title>OkCupid
5</title></rect><text x="11" y="2.4" dy=".35em" text-anchor="start" style="font-size: 11px; font-family: Arial,Helvetica; pointer-events: none;">OkCupid</text></g><g class="node" transform="translate(421.5,286.7600000000001)"><rect height="1.92" width="5" style=""><title>Opera
2</title></rect><text x="11" y="0.96" dy=".35em" text-anchor="start" style="font-size: 11px; font-family: Arial,Helvetica; pointer-events: none;">Opera</text></g><g class="node" transform="translate(421.5,298.6800000000001)"><rect height="1.92" width="5" style=""><title>Sea Limited
2</title></rect><text x="11" y="0.96" dy=".35em" text-anchor="start" style="font-size: 11px; font-family: Arial,Helvetica; pointer-events: none;">Sea Limited</text></g><g class="node" transform="translate(421.5,226.20000000000007)"><rect height="2.88" width="5" style=""><title>Spearhead Integrated Marketing Communication
3</title></rect><text x="11" y="1.44" dy=".35em" text-anchor="start" style="font-size: 11px; font-family: Arial,Helvetica; pointer-events: none;">Spearhead Integrated Marketing Communication</text></g><g class="node" transform="translate(421.5,442.1199999999999)"><rect height="0.96" width="5" style=""><title>tindersparks
1</title></rect><text x="11" y="0.48" dy=".35em" text-anchor="start" style="font-size: 11px; font-family: Arial,Helvetica; pointer-events: none;">tindersparks</text></g><g class="node" transform="translate(421.5,453.07999999999987)"><rect height="0.96" width="5" style=""><title>Treasure Data
1</title></rect><text x="11" y="0.48" dy=".35em" text-anchor="start" style="font-size: 11px; font-family: Arial,Helvetica; pointer-events: none;">Treasure Data</text></g><g class="node" transform="translate(421.5,69.96000000000006)"><rect height="16.32" width="5" style=""><title>Twitter
17</title></rect><text x="11" y="8.16" dy=".35em" text-anchor="start" style="font-size: 11px; font-family: Arial,Helvetica; pointer-events: none;">Twitter</text></g><g class="node" transform="translate(421.5,464.03999999999985)"><rect height="0.96" width="5" style=""><title>Verizon Communications
1</title></rect><text x="11" y="0.48" dy=".35em" text-anchor="start" style="font-size: 11px; font-family: Arial,Helvetica; pointer-events: none;">Verizon Communications</text></g></g></g></svg>