<svg width="848" height="520" xmlns="http://www.w3.org/2000/svg" version="1.1"><g transform="translate(0,10)"><g><path class="link" d="M5,125.37037037037038C213.25,125.37037037037038 213.25,70.37037037037038 421.5,70.37037037037038" style="stroke-width: 100.741; fill: none; stroke: rgb(191, 139, 105); stroke-opacity: 0.4;"><title>16</title></path><path class="link" d="M426.5,57.77777777777778C634.75,57.77777777777778 634.75,37.77777777777778 843,37.77777777777778" style="stroke-width: 75.5556; fill: none; stroke: rgb(105, 105, 191); stroke-opacity: 0.4;"><title>12</title></path><path class="link" d="M5,327.40740740740745C213.25,327.40740740740745 213.25,177.96296296296296 421.5,177.96296296296296" style="stroke-width: 56.6667; fill: none; stroke: rgb(191, 105, 105); stroke-opacity: 0.4;"><title>9</title></path><path class="link" d="M426.5,171.66666666666666C634.75,171.66666666666666 634.75,113.88888888888889 843,113.88888888888889" style="stroke-width: 44.0741; fill: none; stroke: rgb(105, 191, 174); stroke-opacity: 0.4;"><title>7</title></path><path class="link" d="M426.5,273.51851851851853C634.75,273.51851851851853 634.75,161.66666666666666 843,161.66666666666666" style="stroke-width: 31.4815; fill: none; stroke: rgb(191, 174, 105); stroke-opacity: 0.4;"><title>5</title></path><path class="link" d="M426.5,232.03703703703704C634.75,232.03703703703704 634.75,215.74074074074073 843,215.74074074074073" style="stroke-width: 31.4815; fill: none; stroke: rgb(105, 174, 191); stroke-opacity: 0.4;"><title>5</title></path><path class="link" d="M5,188.33333333333334C213.25,188.33333333333334 213.25,228.88888888888889 421.5,228.88888888888889" style="stroke-width: 25.1852; fill: none; stroke: rgb(191, 139, 105); stroke-opacity: 0.4;"><title>4</title></path><path class="link" d="M426.5,311.85185185185185C634.75,311.85185185185185 634.75,254.07407407407405 843,254.07407407407405" style="stroke-width: 25.1852; fill: none; stroke: rgb(174, 191, 105); stroke-opacity: 0.4;"><title>4</title></path><path class="link" d="M426.5,114.44444444444444C634.75,114.44444444444444 634.75,289.25925925925924 843,289.25925925925924" style="stroke-width: 25.1852; fill: none; stroke: rgb(105, 105, 191); stroke-opacity: 0.4;"><title>4</title></path><path class="link" d="M5,371.4814814814815C213.25,371.4814814814815 213.25,279.81481481481484 421.5,279.81481481481484" style="stroke-width: 18.8889; fill: none; stroke: rgb(191, 105, 105); stroke-opacity: 0.4;"><title>3</title></path><path class="link" d="M5,289.6296296296297C213.25,289.6296296296297 213.25,130.1851851851852 421.5,130.1851851851852" style="stroke-width: 18.8889; fill: none; stroke: rgb(191, 105, 105); stroke-opacity: 0.4;"><title>3</title></path><path class="link" d="M426.5,343.8888888888889C634.75,343.8888888888889 634.75,321.2962962962963 843,321.2962962962963" style="stroke-width: 18.8889; fill: none; stroke: rgb(105, 191, 139); stroke-opacity: 0.4;"><title>3</title></path><path class="link" d="M5,387.2222222222223C213.25,387.2222222222223 213.25,318.14814814814815 421.5,318.14814814814815" style="stroke-width: 12.5926; fill: none; stroke: rgb(191, 105, 105); stroke-opacity: 0.4;"><title>2</title></path><path class="link" d="M5,399.81481481481484C213.25,399.81481481481484 213.25,353.33333333333337 421.5,353.33333333333337" style="stroke-width: 12.5926; fill: none; stroke: rgb(191, 105, 105); stroke-opacity: 0.4;"><title>2</title></path><path class="link" d="M5,232.40740740740742C213.25,232.40740740740742 213.25,340.74074074074076 421.5,340.74074074074076" style="stroke-width: 12.5926; fill: none; stroke: rgb(191, 139, 105); stroke-opacity: 0.4;"><title>2</title></path><path class="link" d="M5,207.22222222222223C213.25,207.22222222222223 213.25,264.0740740740741 421.5,264.0740740740741" style="stroke-width: 12.5926; fill: none; stroke: rgb(191, 139, 105); stroke-opacity: 0.4;"><title>2</title></path><path class="link" d="M5,245C213.25,245 213.25,375.925925925926 421.5,375.925925925926" style="stroke-width: 12.5926; fill: none; stroke: rgb(191, 139, 105); stroke-opacity: 0.4;"><title>2</title></path><path class="link" d="M5,219.81481481481484C213.25,219.81481481481484 213.25,305.55555555555554 421.5,305.55555555555554" style="stroke-width: 12.5926; fill: none; stroke: rgb(191, 139, 105); stroke-opacity: 0.4;"><title>2</title></path><path class="link" d="M426.5,200C634.75,200 634.75,347.03703703703707 843,347.03703703703707" style="stroke-width: 12.5926; fill: none; stroke: rgb(105, 191, 174); stroke-opacity: 0.4;"><title>2</title></path><path class="link" d="M426.5,375.925925925926C634.75,375.925925925926 634.75,183.70370370370372 843,183.70370370370372" style="stroke-width: 12.5926; fill: none; stroke: rgb(191, 105, 174); stroke-opacity: 0.4;"><title>2</title></path><path class="link" d="M5,415.5555555555556C213.25,415.5555555555556 213.25,444.25925925925935 421.5,444.25925925925935" style="stroke-width: 6.2963; fill: none; stroke: rgb(191, 105, 105); stroke-opacity: 0.4;"><title>1</title></path><path class="link" d="M5,409.2592592592593C213.25,409.2592592592593 213.25,395.37037037037044 421.5,395.37037037037044" style="stroke-width: 6.2963; fill: none; stroke: rgb(191, 105, 105); stroke-opacity: 0.4;"><title>1</title></path><path class="link" d="M5,358.8888888888889C213.25,358.8888888888889 213.25,244.62962962962965 421.5,244.62962962962965" style="stroke-width: 6.2963; fill: none; stroke: rgb(191, 105, 105); stroke-opacity: 0.4;"><title>1</title></path><path class="link" d="M5,421.8518518518519C213.25,421.8518518518519 213.25,460.55555555555566 421.5,460.55555555555566" style="stroke-width: 6.2963; fill: none; stroke: rgb(191, 105, 105); stroke-opacity: 0.4;"><title>1</title></path><path class="link" d="M5,254.44444444444443C213.25,254.44444444444443 213.25,411.66666666666674 421.5,411.66666666666674" style="stroke-width: 6.2963; fill: none; stroke: rgb(191, 139, 105); stroke-opacity: 0.4;"><title>1</title></path><path class="link" d="M5,260.74074074074076C213.25,260.74074074074076 213.25,427.96296296296305 421.5,427.96296296296305" style="stroke-width: 6.2963; fill: none; stroke: rgb(191, 139, 105); stroke-opacity: 0.4;"><title>1</title></path><path class="link" d="M5,267.03703703703707C213.25,267.03703703703707 213.25,476.85185185185196 421.5,476.85185185185196" style="stroke-width: 6.2963; fill: none; stroke: rgb(191, 139, 105); stroke-opacity: 0.4;"><title>1</title></path><path class="link" d="M426.5,444.25925925925935C634.75,444.25925925925935 634.75,464.25925925925935 843,464.25925925925935" style="stroke-width: 6.2963; fill: none; stroke: rgb(139, 191, 105); stroke-opacity: 0.4;"><title>1</title></path><path class="link" d="M426.5,395.37037037037044C634.75,395.37037037037044 634.75,366.4814814814815 843,366.4814814814815" style="stroke-width: 6.2963; fill: none; stroke: rgb(105, 191, 105); stroke-opacity: 0.4;"><title>1</title></path><path class="link" d="M426.5,356.4814814814815C634.75,356.4814814814815 634.75,496.85185185185196 843,496.85185185185196" style="stroke-width: 6.2963; fill: none; stroke: rgb(105, 191, 139); stroke-opacity: 0.4;"><title>1</title></path><path class="link" d="M426.5,460.55555555555566C634.75,460.55555555555566 634.75,447.96296296296305 843,447.96296296296305" style="stroke-width: 6.2963; fill: none; stroke: rgb(105, 139, 191); stroke-opacity: 0.4;"><title>1</title></path><path class="link" d="M426.5,136.48148148148147C634.75,136.48148148148147 634.75,431.66666666666674 843,431.66666666666674" style="stroke-width: 6.2963; fill: none; stroke: rgb(105, 105, 191); stroke-opacity: 0.4;"><title>1</title></path><path class="link" d="M426.5,98.70370370370371C634.75,98.70370370370371 634.75,88.70370370370371 843,88.70370370370371" style="stroke-width: 6.2963; fill: none; stroke: rgb(105, 105, 191); stroke-opacity: 0.4;"><title>1</title></path><path class="link" d="M426.5,130.1851851851852C634.75,130.1851851851852 634.75,415.37037037037044 843,415.37037037037044" style="stroke-width: 6.2963; fill: none; stroke: rgb(105, 105, 191); stroke-opacity: 0.4;"><title>1</title></path><path class="link" d="M426.5,411.66666666666674C634.75,411.66666666666674 634.75,382.7777777777778 843,382.7777777777778" style="stroke-width: 6.2963; fill: none; stroke: rgb(139, 105, 191); stroke-opacity: 0.4;"><title>1</title></path><path class="link" d="M426.5,427.96296296296305C634.75,427.96296296296305 634.75,399.07407407407413 843,399.07407407407413" style="stroke-width: 6.2963; fill: none; stroke: rgb(174, 105, 191); stroke-opacity: 0.4;"><title>1</title></path><path class="link" d="M426.5,476.85185185185196C634.75,476.85185185185196 634.75,480.55555555555566 843,480.55555555555566" style="stroke-width: 6.2963; fill: none; stroke: rgb(191, 105, 139); stroke-opacity: 0.4;"><title>1</title></path></g><g><g class="node" transform="translate(0,280.1851851851852)"><rect height="144.81481481481484" width="5" style=""><title>OkCupid1
23</title></rect><text x="11" y="72.40740740740742" dy=".35em" text-anchor="start" style="font-size: 11px; font-family: Arial,Helvetica; pointer-events: none;">OkCupid1</text></g><g class="node" transform="translate(0,75)"><rect height="195.1851851851852" width="5" style=""><title>OkCupid2
31</title></rect><text x="11" y="97.5925925925926" dy=".35em" text-anchor="start" style="font-size: 11px; font-family: Arial,Helvetica; pointer-events: none;">OkCupid2</text></g><g class="node" transform="translate(843,85.55555555555556)"><rect height="50.370370370370374" width="5" style="fill: rgb(102, 102, 102);"><title>
8</title></rect><text x="-6" y="25.185185185185187" dy=".35em" text-anchor="end" style="font-size: 11px; font-family: Arial,Helvetica; pointer-events: none;"></text></g><g class="node" transform="translate(843,363.33333333333337)"><rect height="6.296296296296297" width="5" style="fill: rgb(102, 102, 102);"><title>Appboy
1</title></rect><text x="-6" y="3.1481481481481484" dy=".35em" text-anchor="end" style="font-size: 11px; font-family: Arial,Helvetica; pointer-events: none;">Appboy</text></g><g class="node" transform="translate(843,379.6296296296297)"><rect height="6.296296296296297" width="5" style="fill: rgb(102, 102, 102);"><title>AppBoy
1</title></rect><text x="-6" y="3.1481481481481484" dy=".35em" text-anchor="end" style="font-size: 11px; font-family: Arial,Helvetica; pointer-events: none;">AppBoy</text></g><g class="node" transform="translate(843,395.925925925926)"><rect height="6.296296296296297" width="5" style="fill: rgb(102, 102, 102);"><title>Appsflyer
1</title></rect><text x="-6" y="3.1481481481481484" dy=".35em" text-anchor="end" style="font-size: 11px; font-family: Arial,Helvetica; pointer-events: none;">Appsflyer</text></g><g class="node" transform="translate(843,311.85185185185185)"><rect height="18.88888888888889" width="5" style="fill: rgb(102, 102, 102);"><title>Crashlytics
3</title></rect><text x="-6" y="9.444444444444445" dy=".35em" text-anchor="end" style="font-size: 11px; font-family: Arial,Helvetica; pointer-events: none;">Crashlytics</text></g><g class="node" transform="translate(843,412.2222222222223)"><rect height="6.296296296296297" width="5" style="fill: rgb(102, 102, 102);"><title>Doubleclick
1</title></rect><text x="-6" y="3.1481481481481484" dy=".35em" text-anchor="end" style="font-size: 11px; font-family: Arial,Helvetica; pointer-events: none;">Doubleclick</text></g><g class="node" transform="translate(843,428.5185185185186)"><rect height="6.296296296296297" width="5" style="fill: rgb(102, 102, 102);"><title>DoubleClick
1</title></rect><text x="-6" y="3.1481481481481484" dy=".35em" text-anchor="end" style="font-size: 11px; font-family: Arial,Helvetica; pointer-events: none;">DoubleClick</text></g><g class="node" transform="translate(843,200)"><rect height="31.481481481481485" width="5" style="fill: rgb(102, 102, 102);"><title>Facebook
5</title></rect><text x="-6" y="15.740740740740742" dy=".35em" text-anchor="end" style="font-size: 11px; font-family: Arial,Helvetica; pointer-events: none;">Facebook</text></g><g class="node" transform="translate(843,0)"><rect height="75.55555555555556" width="5" style="fill: rgb(102, 102, 102);"><title>Google
12</title></rect><text x="-6" y="37.77777777777778" dy=".35em" text-anchor="end" style="font-size: 11px; font-family: Arial,Helvetica; pointer-events: none;">Google</text></g><g class="node" transform="translate(843,444.8148148148149)"><rect height="6.296296296296297" width="5" style="fill: rgb(102, 102, 102);"><title>Humor Rainbow, Inc.
1</title></rect><text x="-6" y="3.1481481481481484" dy=".35em" text-anchor="end" style="font-size: 11px; font-family: Arial,Helvetica; pointer-events: none;">Humor Rainbow, Inc.</text></g><g class="node" transform="translate(843,461.1111111111112)"><rect height="6.296296296296297" width="5" style="fill: rgb(102, 102, 102);"><title>Kochava
1</title></rect><text x="-6" y="3.1481481481481484" dy=".35em" text-anchor="end" style="font-size: 11px; font-family: Arial,Helvetica; pointer-events: none;">Kochava</text></g><g class="node" transform="translate(843,477.4074074074075)"><rect height="6.296296296296297" width="5" style="fill: rgb(102, 102, 102);"><title>Moloco
1</title></rect><text x="-6" y="3.1481481481481484" dy=".35em" text-anchor="end" style="font-size: 11px; font-family: Arial,Helvetica; pointer-events: none;">Moloco</text></g><g class="node" transform="translate(843,493.7037037037038)"><rect height="6.296296296296297" width="5" style="fill: rgb(102, 102, 102);"><title>MoPub
1</title></rect><text x="-6" y="3.1481481481481484" dy=".35em" text-anchor="end" style="font-size: 11px; font-family: Arial,Helvetica; pointer-events: none;">MoPub</text></g><g class="node" transform="translate(843,241.48148148148147)"><rect height="25.185185185185187" width="5" style="fill: rgb(102, 102, 102);"><title>mParticle
4</title></rect><text x="-6" y="12.592592592592593" dy=".35em" text-anchor="end" style="font-size: 11px; font-family: Arial,Helvetica; pointer-events: none;">mParticle</text></g><g class="node" transform="translate(843,145.92592592592592)"><rect height="44.074074074074076" width="5" style="fill: rgb(102, 102, 102);"><title>OkCupid
7</title></rect><text x="-6" y="22.037037037037038" dy=".35em" text-anchor="end" style="font-size: 11px; font-family: Arial,Helvetica; pointer-events: none;">OkCupid</text></g><g class="node" transform="translate(843,340.74074074074076)"><rect height="12.592592592592593" width="5" style="fill: rgb(102, 102, 102);"><title>OKCupid
2</title></rect><text x="-6" y="6.296296296296297" dy=".35em" text-anchor="end" style="font-size: 11px; font-family: Arial,Helvetica; pointer-events: none;">OKCupid</text></g><g class="node" transform="translate(843,276.66666666666663)"><rect height="25.185185185185187" width="5" style="fill: rgb(102, 102, 102);"><title>YouTube
4</title></rect><text x="-6" y="12.592592592592593" dy=".35em" text-anchor="end" style="font-size: 11px; font-family: Arial,Helvetica; pointer-events: none;">YouTube</text></g><g class="node" transform="translate(421.5,149.62962962962962)"><rect height="56.66666666666667" width="5" style=""><title>
9</title></rect><text x="11" y="28.333333333333336" dy=".35em" text-anchor="start" style="font-size: 11px; font-family: Arial,Helvetica; pointer-events: none;"></text></g><g class="node" transform="translate(421.5,392.2222222222223)"><rect height="6.296296296296297" width="5" style=""><title>Appboy
1</title></rect><text x="11" y="3.1481481481481484" dy=".35em" text-anchor="start" style="font-size: 11px; font-family: Arial,Helvetica; pointer-events: none;">Appboy</text></g><g class="node" transform="translate(421.5,408.5185185185186)"><rect height="6.296296296296297" width="5" style=""><title>AppBoy
1</title></rect><text x="11" y="3.1481481481481484" dy=".35em" text-anchor="start" style="font-size: 11px; font-family: Arial,Helvetica; pointer-events: none;">AppBoy</text></g><g class="node" transform="translate(421.5,424.8148148148149)"><rect height="6.296296296296297" width="5" style=""><title>Appsflyer
1</title></rect><text x="11" y="3.1481481481481484" dy=".35em" text-anchor="start" style="font-size: 11px; font-family: Arial,Helvetica; pointer-events: none;">Appsflyer</text></g><g class="node" transform="translate(421.5,216.2962962962963)"><rect height="31.481481481481485" width="5" style=""><title>Facebook
5</title></rect><text x="11" y="15.740740740740742" dy=".35em" text-anchor="start" style="font-size: 11px; font-family: Arial,Helvetica; pointer-events: none;">Facebook</text></g><g class="node" transform="translate(421.5,20)"><rect height="119.62962962962963" width="5" style=""><title>Google
19</title></rect><text x="11" y="59.81481481481482" dy=".35em" text-anchor="start" style="font-size: 11px; font-family: Arial,Helvetica; pointer-events: none;">Google</text></g><g class="node" transform="translate(421.5,441.1111111111112)"><rect height="6.296296296296297" width="5" style=""><title>Kochava
1</title></rect><text x="11" y="3.1481481481481484" dy=".35em" text-anchor="start" style="font-size: 11px; font-family: Arial,Helvetica; pointer-events: none;">Kochava</text></g><g class="node" transform="translate(421.5,369.6296296296297)"><rect height="12.592592592592593" width="5" style=""><title>Match Group
2</title></rect><text x="11" y="6.296296296296297" dy=".35em" text-anchor="start" style="font-size: 11px; font-family: Arial,Helvetica; pointer-events: none;">Match Group</text></g><g class="node" transform="translate(421.5,457.4074074074075)"><rect height="6.296296296296297" width="5" style=""><title>Match.com (owned by InterActiveCorp)
1</title></rect><text x="11" y="3.1481481481481484" dy=".35em" text-anchor="start" style="font-size: 11px; font-family: Arial,Helvetica; pointer-events: none;">Match.com (owned by InterActiveCorp)</text></g><g class="node" transform="translate(421.5,473.7037037037038)"><rect height="6.296296296296297" width="5" style=""><title>Moloco
1</title></rect><text x="11" y="3.1481481481481484" dy=".35em" text-anchor="start" style="font-size: 11px; font-family: Arial,Helvetica; pointer-events: none;">Moloco</text></g><g class="node" transform="translate(421.5,299.25925925925924)"><rect height="25.185185185185187" width="5" style=""><title>mParticle
4</title></rect><text x="11" y="12.592592592592593" dy=".35em" text-anchor="start" style="font-size: 11px; font-family: Arial,Helvetica; pointer-events: none;">mParticle</text></g><g class="node" transform="translate(421.5,257.77777777777777)"><rect height="31.481481481481485" width="5" style=""><title>OkCupid
5</title></rect><text x="11" y="15.740740740740742" dy=".35em" text-anchor="start" style="font-size: 11px; font-family: Arial,Helvetica; pointer-events: none;">OkCupid</text></g><g class="node" transform="translate(421.5,334.44444444444446)"><rect height="25.185185185185187" width="5" style=""><title>Twitter
4</title></rect><text x="11" y="12.592592592592593" dy=".35em" text-anchor="start" style="font-size: 11px; font-family: Arial,Helvetica; pointer-events: none;">Twitter</text></g></g></g></svg>